<svg width="193" height="55" viewBox="0 0 193 55" fill="none" xmlns="http://www.w3.org/2000/svg">
<path d="M38.786 18.0882L38.7623 18.074L38.707 18.0569C38.7293 18.0759 38.757 18.0869 38.786 18.0882Z" fill="#23262D"/>
<path d="M39.1329 20.6029L39.1055 20.6105L39.1329 20.6029Z" fill="#23262D"/>
<path d="M38.7951 18.0841C38.7916 18.0836 38.7885 18.0829 38.7854 18.0818C38.7851 18.0839 38.7851 18.086 38.7854 18.0881C38.7889 18.0877 38.792 18.0863 38.7951 18.0841Z" fill="#23262D"/>
<path d="M38.7852 18.0893H38.7902V18.0863L38.7852 18.0893Z" fill="#23262D"/>
<path d="M39.1133 20.5983L39.1533 20.5751L39.1682 20.5665L39.1816 20.5519C39.1565 20.563 39.1331 20.5787 39.1133 20.5983Z" fill="#23262D"/>
<path d="M38.8549 18.1433L38.8156 18.1054L38.7891 18.0907C38.8036 18.1163 38.827 18.1352 38.8549 18.1433Z" fill="#23262D"/>
<path d="M28.9978 42.5452C28.9664 42.5588 28.939 42.5804 28.918 42.6077L28.9427 42.5915C28.9595 42.5761 28.9833 42.5574 28.9978 42.5452Z" fill="#23262D"/>
<path d="M34.7212 41.4021C34.7212 41.3661 34.7034 41.3726 34.7077 41.5006C34.7077 41.4901 34.7121 41.4797 34.714 41.4697C34.7164 41.447 34.7183 41.4247 34.7212 41.4021Z" fill="#23262D"/>
<path d="M34.1305 42.5452C34.0992 42.5588 34.0718 42.5804 34.0508 42.6077L34.0755 42.5915C34.0923 42.5761 34.1161 42.5574 34.1305 42.5452Z" fill="#23262D"/>
<path d="M24.9629 42.8174C24.9391 42.7965 24.91 42.7825 24.8789 42.7775C24.9041 42.79 24.9293 42.8023 24.9461 42.8116L24.9629 42.8174Z" fill="#23262D"/>
<path d="M24.0565 41.9355C24.0529 41.8981 24.0416 41.8622 24.0234 41.8295C24.0363 41.8633 24.047 41.8981 24.0556 41.9337L24.0565 41.9355Z" fill="#23262D"/>
<path d="M30.1488 26.1605C28.9033 26.7018 27.4898 27.3155 25.6578 27.3155C24.8915 27.3139 24.1288 27.2072 23.3906 26.9982L24.6577 40.2032C24.7025 40.755 24.9502 41.2698 25.3515 41.6447C25.7529 42.02 26.2785 42.2282 26.8241 42.2278C26.8241 42.2278 28.6206 42.3227 29.22 42.3227C29.8652 42.3227 31.7998 42.2278 31.7998 42.2278C32.3453 42.2278 32.8708 42.0197 33.272 41.6447C33.6733 41.2694 33.9209 40.755 33.9658 40.2032L35.3228 25.6112C34.7164 25.4009 34.1043 25.2612 33.4143 25.2612C32.221 25.2608 31.2596 25.6779 30.1488 26.1605Z" fill="#FFDD00"/>
<path d="M19.4727 20.5269L19.4941 20.5472L19.5081 20.5557C19.4973 20.5449 19.4854 20.5352 19.4727 20.5269Z" fill="#23262D"/>
<path d="M41.1865 19.3082L40.996 18.3313C40.8246 17.4547 40.4361 16.6265 39.5497 16.3097C39.2657 16.2084 38.9431 16.1648 38.7253 15.955C38.5075 15.7452 38.4431 15.4195 38.3928 15.1173C38.2996 14.5628 38.2118 14.0078 38.1162 13.4542C38.0337 12.9783 37.9682 12.4437 37.7532 12.0071C37.4735 11.4208 36.8927 11.078 36.3151 10.8511C36.0191 10.739 35.717 10.6441 35.4105 10.567C33.9676 10.1806 32.4505 10.0385 30.9661 9.95756C29.1844 9.85776 27.3979 9.88782 25.6204 10.0475C24.2974 10.1697 22.904 10.3175 21.6468 10.782C21.1873 10.952 20.7138 11.1561 20.3644 11.5165C19.9357 11.9592 19.7957 12.644 20.1087 13.1961C20.3313 13.5882 20.7082 13.8653 21.108 14.0485C21.6287 14.2847 22.1726 14.4643 22.7305 14.5846C24.2839 14.9331 25.8929 15.07 27.4799 15.1282C29.2389 15.2003 31.0008 15.1419 32.7514 14.9535C33.1843 14.9052 33.6164 14.8472 34.0478 14.7797C34.5558 14.7006 34.8819 14.0263 34.7322 13.5565C34.553 12.9949 34.0716 12.777 33.5272 12.8618C33.447 12.8746 33.3672 12.8864 33.2869 12.8983L33.2291 12.9068C33.0447 12.9305 32.8602 12.9526 32.6758 12.9731C32.2948 13.0148 31.9129 13.0489 31.5301 13.0754C30.6727 13.136 29.8129 13.1639 28.9536 13.1653C28.1092 13.1653 27.2644 13.1412 26.4219 13.0849C26.0375 13.0593 25.654 13.0268 25.2715 12.9873C25.0975 12.9688 24.924 12.9494 24.7504 12.9276L24.5853 12.9063L24.5494 12.9011L24.3781 12.876C24.0283 12.8225 23.6784 12.7609 23.3323 12.6866C23.2973 12.6787 23.2661 12.659 23.2437 12.6307C23.2213 12.6024 23.2091 12.5671 23.2091 12.5308C23.2091 12.4945 23.2213 12.4593 23.2437 12.4309C23.2661 12.4026 23.2973 12.3829 23.3323 12.375H23.3388C23.6388 12.3101 23.941 12.2547 24.2443 12.2064C24.3454 12.1903 24.4467 12.1745 24.5484 12.1591H24.5512C24.7411 12.1463 24.9319 12.1117 25.1208 12.089C26.7646 11.9154 28.4182 11.8562 30.0699 11.9119C30.8718 11.9355 31.6733 11.9834 32.4715 12.0658C32.6432 12.0838 32.8139 12.1027 32.9846 12.124C33.0499 12.1321 33.1157 12.1416 33.1815 12.1496L33.314 12.169C33.7003 12.2274 34.0845 12.2983 34.4667 12.3817C35.0331 12.5066 35.7602 12.5474 36.0123 13.1772C36.0924 13.377 36.1288 13.5991 36.1731 13.8089L36.2298 14.0764C36.2312 14.0813 36.2322 14.0862 36.233 14.0911C36.3665 14.7225 36.5 15.3539 36.6335 15.9853C36.6434 16.032 36.6437 16.0802 36.6342 16.1269C36.625 16.1736 36.6062 16.2179 36.5793 16.257C36.5524 16.296 36.5177 16.329 36.4777 16.3539C36.4376 16.3788 36.3927 16.395 36.3463 16.4016H36.3424L36.2609 16.4129L36.1802 16.4238C35.9245 16.4576 35.6685 16.4892 35.4123 16.5186C34.9076 16.5769 34.402 16.6275 33.8957 16.6701C32.8896 16.755 31.8815 16.8107 30.8714 16.8372C30.3567 16.8511 29.8421 16.8576 29.3277 16.8566C27.2803 16.855 25.2346 16.7342 23.2007 16.4949C22.9805 16.4683 22.7603 16.4399 22.5402 16.411C22.7109 16.4333 22.4161 16.394 22.3564 16.3855C22.2164 16.3656 22.0765 16.3449 21.9365 16.3234C21.4667 16.2519 20.9998 16.1639 20.5309 16.0867C19.9641 15.992 19.4221 16.0393 18.9094 16.3234C18.4885 16.5572 18.1479 16.9157 17.933 17.351C17.7119 17.8151 17.6461 18.3204 17.5472 18.819C17.4483 19.3177 17.2943 19.8542 17.3527 20.3661C17.4781 21.4709 18.239 22.3688 19.3334 22.5695C20.363 22.7589 21.3982 22.9124 22.4361 23.0431C26.5135 23.55 30.6327 23.6106 34.7228 23.224C35.0559 23.1924 35.3885 23.158 35.7205 23.1207C35.8243 23.1092 35.9295 23.1213 36.0279 23.1563C36.1264 23.1912 36.216 23.2481 36.29 23.3227C36.364 23.3974 36.421 23.4879 36.4561 23.5876C36.4911 23.6874 36.5039 23.7939 36.4932 23.8993L36.3895 24.9212C36.1809 26.9861 35.9723 29.051 35.7637 31.1156C35.5459 33.2838 35.3268 35.4519 35.1063 37.6196C35.0441 38.2304 34.9819 38.8408 34.9197 39.4512C34.86 40.0519 34.8516 40.672 34.7391 41.2658C34.5619 42.1994 33.9391 42.7731 33.0304 42.9827C32.1978 43.175 31.3473 43.276 30.4935 43.2839C29.547 43.289 28.6009 43.2465 27.6544 43.2516C26.644 43.2573 25.4063 43.1628 24.6263 42.3992C23.941 41.7288 23.8464 40.6788 23.753 39.7711C23.6286 38.5694 23.5053 37.3676 23.3831 36.1659L22.6973 29.4847L22.2537 25.1617C22.2463 25.0902 22.2388 25.0196 22.2318 24.9477C22.1786 24.432 21.8189 23.9272 21.2522 23.9532C20.767 23.975 20.2156 24.3936 20.2725 24.9477L20.6014 28.1526L21.2815 34.7823C21.4753 36.6656 21.6686 38.5489 21.8614 40.4325C21.8987 40.7935 21.9337 41.1555 21.9729 41.516C22.1861 43.4881 23.6695 44.5507 25.5066 44.8498C26.5796 45.0252 27.6787 45.0612 28.7675 45.0792C30.1632 45.1018 31.573 45.1564 32.9459 44.8998C34.9803 44.5209 36.5067 43.1419 36.7245 41.0027C36.7868 40.3855 36.8491 39.7675 36.9111 39.1499C37.1179 37.1067 37.3244 35.0633 37.5308 33.0198L38.2051 26.3427L38.5146 23.2827C38.5298 23.131 38.5932 22.9883 38.6945 22.8758C38.7961 22.7633 38.9307 22.687 39.078 22.6581C39.6599 22.543 40.2158 22.3465 40.6298 21.8971C41.2885 21.1815 41.4195 20.2487 41.1865 19.3082ZM19.3036 19.9683C19.3124 19.9641 19.2961 20.0412 19.2891 20.0773C19.2877 20.0228 19.2905 19.9745 19.3036 19.9683ZM19.36 20.4116C19.3647 20.4083 19.3787 20.4272 19.3931 20.4499C19.3712 20.4291 19.3572 20.4135 19.3595 20.4116H19.36ZM19.4155 20.4859C19.4356 20.5205 19.4463 20.5423 19.4155 20.4859V20.4859ZM19.527 20.5778H19.5298C19.5298 20.5811 19.5349 20.5844 19.5368 20.5877C19.5337 20.5841 19.5303 20.5807 19.5266 20.5778H19.527ZM39.0511 20.4404C38.8422 20.6422 38.527 20.736 38.2161 20.7828C34.7266 21.3085 31.1863 21.5746 27.6586 21.4572C25.1339 21.3696 22.6358 21.085 20.1363 20.7265C19.8913 20.6914 19.6259 20.646 19.4575 20.4627C19.1403 20.117 19.2961 19.4209 19.3787 19.0033C19.4542 18.6206 19.5989 18.1106 20.0472 18.0561C20.7469 17.9728 21.5596 18.2725 22.2519 18.3791C23.0853 18.5082 23.9219 18.6116 24.7616 18.6893C28.3453 19.0208 31.9891 18.9691 35.5569 18.4842C36.2071 18.3955 36.8552 18.2925 37.5007 18.175C38.0762 18.0703 38.7136 17.8739 39.0614 18.4786C39.2997 18.8905 39.3312 19.4417 39.2944 19.9072C39.2831 20.1101 39.1959 20.3008 39.0504 20.4404H39.0511Z" fill="#23262D"/>
<path fill-rule="evenodd" clip-rule="evenodd" d="M60.2155 30.2822C60.0119 30.677 59.7318 31.0208 59.3752 31.3125C59.0186 31.6044 58.6028 31.8421 58.1272 32.0251C57.652 32.2086 57.1736 32.3317 56.6927 32.3944C56.2114 32.4574 55.7443 32.4519 55.2921 32.3772C54.8392 32.3029 54.4539 32.1513 54.1373 31.9221L54.4942 28.1613C54.8222 28.047 55.2351 27.9295 55.7333 27.8093C56.2312 27.6892 56.7433 27.6032 57.2699 27.5518C57.7965 27.5001 58.294 27.5062 58.764 27.569C59.2335 27.6319 59.6043 27.7836 59.8759 28.0241C60.0232 28.1613 60.1479 28.3101 60.2495 28.4705C60.3515 28.6308 60.4135 28.7968 60.4365 28.9685C60.4928 29.4493 60.4195 29.8872 60.2155 30.2822ZM55.0371 22.2712C55.2747 22.1224 55.5609 21.9906 55.8945 21.876C56.2284 21.7619 56.5708 21.6815 56.9218 21.6357C57.2724 21.5902 57.6148 21.5841 57.9491 21.6185C58.2827 21.6529 58.5773 21.7473 58.832 21.9017C59.0866 22.0564 59.276 22.2797 59.4007 22.5715C59.525 22.8636 59.559 23.2329 59.5023 23.6793C59.4573 24.0342 59.3182 24.3348 59.0866 24.5808C58.8546 24.8272 58.5713 25.033 58.2377 25.1991C57.9038 25.3653 57.55 25.4969 57.1768 25.5938C56.8028 25.6914 56.4434 25.7631 56.0984 25.8087C55.7532 25.8546 55.4532 25.8834 55.1986 25.8945C54.944 25.906 54.7768 25.9117 54.6975 25.9117L55.0371 22.2712ZM62.0492 27.8522C61.8683 27.4518 61.625 27.0997 61.3194 26.796C61.0137 26.4927 60.6511 26.2725 60.2325 26.135C60.4135 25.9862 60.592 25.7516 60.7676 25.4309C60.9429 25.1106 61.0927 24.7612 61.2174 24.3834C61.3417 24.0054 61.427 23.625 61.472 23.2414C61.517 22.8579 61.5 22.5287 61.4213 22.2538C61.2283 21.5671 60.9259 21.029 60.5126 20.6397C60.0994 20.2506 59.6185 19.9815 59.0696 19.8325C58.5203 19.6841 57.9151 19.6523 57.2529 19.7382C56.5907 19.824 55.9143 19.9928 55.2241 20.2447C55.2241 20.1876 55.2298 20.1275 55.2411 20.0645C55.2521 20.0018 55.2577 19.9357 55.2577 19.8669C55.2577 19.6952 55.1731 19.5466 55.0031 19.4205C54.8335 19.2946 54.6384 19.2203 54.4177 19.1972C54.1968 19.1745 53.9818 19.2229 53.7722 19.3432C53.5629 19.4634 53.4184 19.6841 53.3394 20.0041C53.2488 21.0347 53.1581 22.1052 53.0678 23.2155C52.9772 24.3261 52.8808 25.4481 52.7792 26.5816C52.6772 27.7149 52.5752 28.8398 52.4736 29.9559C52.3716 31.0722 52.2696 32.1454 52.168 33.1756C52.202 33.4848 52.2866 33.7253 52.4226 33.897C52.5582 34.0689 52.7169 34.1719 52.8978 34.2061C53.0788 34.2405 53.2686 34.2087 53.4666 34.1116C53.6645 34.0146 53.8373 33.8453 53.9846 33.6051C54.4372 33.8569 54.9468 34.0201 55.5127 34.0946C56.0786 34.1689 56.6527 34.1689 57.2363 34.0946C57.8188 34.0201 58.3932 33.88 58.9591 33.6737C59.525 33.4678 60.0402 33.2101 60.5042 32.9011C60.9684 32.592 61.3587 32.2397 61.676 31.845C61.9926 31.4497 62.2022 31.0234 62.3038 30.5657C62.4058 30.0962 62.4342 29.6269 62.3888 29.1574C62.3435 28.6881 62.2302 28.2533 62.0492 27.8522Z" fill="#23262D"/>
<path fill-rule="evenodd" clip-rule="evenodd" d="M78.6115 36.919C78.5495 37.2968 78.4614 37.6947 78.3484 38.1128C78.2351 38.5302 78.1023 38.9112 77.9496 39.2549C77.7967 39.5982 77.627 39.8753 77.4404 40.0874C77.2534 40.2992 77.0523 40.3879 76.8373 40.3538C76.6677 40.3304 76.5601 40.2219 76.5151 40.0274C76.4694 39.8326 76.4694 39.5921 76.5151 39.3063C76.5601 39.0198 76.6475 38.6962 76.7778 38.3357C76.9082 37.9751 77.0668 37.6171 77.2534 37.2627C77.4404 36.9075 77.6525 36.5671 77.8902 36.2407C78.1278 35.9147 78.3767 35.6426 78.637 35.4251C78.6937 35.4938 78.7192 35.6655 78.7135 35.9404C78.7075 36.2151 78.6738 36.5415 78.6115 36.919ZM84.3675 29.4662C84.2145 29.2945 84.0279 29.1974 83.8069 29.1743C83.5863 29.1514 83.3625 29.2773 83.1366 29.552C82.9893 29.8268 82.8023 30.0901 82.576 30.342C82.3497 30.5941 82.1149 30.8228 81.8716 31.0289C81.628 31.2348 81.396 31.4126 81.1754 31.5612C80.9548 31.7102 80.782 31.8189 80.6577 31.8875C80.6123 31.5213 80.5865 31.1263 80.5812 30.7026C80.5752 30.279 80.584 29.8498 80.6067 29.4148C80.6403 28.7965 80.7111 28.1727 80.8188 27.5429C80.9265 26.9133 81.0819 26.295 81.2859 25.688C81.2859 25.3678 81.2119 25.1072 81.0649 24.9068C80.9176 24.7066 80.7395 24.5804 80.5302 24.529C80.3205 24.4776 80.1059 24.5061 79.885 24.6148C79.6643 24.7238 79.4749 24.9214 79.3162 25.2072C79.1806 25.5852 79.0248 26.0087 78.8495 26.478C78.6738 26.9475 78.4759 27.4255 78.2553 27.912C78.0343 28.3989 77.7882 28.871 77.5166 29.3287C77.2449 29.7869 76.9478 30.1934 76.6252 30.5481C76.3026 30.903 75.9517 31.1808 75.5727 31.381C75.1931 31.5814 74.7834 31.6701 74.3418 31.6472C74.1378 31.5899 73.9905 31.4355 73.9002 31.1834C73.8095 30.9318 73.7557 30.6167 73.7391 30.2389C73.7221 29.8612 73.7391 29.4461 73.7897 28.9939C73.8407 28.5418 73.9087 28.0924 73.9937 27.646C74.0783 27.1993 74.1718 26.7758 74.2734 26.3752C74.3754 25.9745 74.4714 25.6366 74.5621 25.3619C74.698 25.0301 74.698 24.7521 74.5621 24.529C74.4264 24.3057 74.2398 24.1571 74.0022 24.0824C73.7646 24.0081 73.5153 24.0111 73.255 24.0911C72.9947 24.1713 72.8077 24.3486 72.6947 24.6233C72.5021 25.0931 72.3264 25.6194 72.1682 26.2033C72.0099 26.7872 71.8824 27.3913 71.7864 28.015C71.6901 28.6392 71.6359 29.2575 71.6249 29.8699C71.6242 29.9098 71.626 29.9476 71.626 29.9873C71.3792 30.6529 71.144 31.1559 70.9206 31.4925C70.6319 31.9278 70.3061 32.1167 69.9442 32.0592C69.7852 31.9906 69.6811 31.8304 69.6301 31.5783C69.5788 31.3267 69.5621 31.0176 69.5788 30.6509C69.5961 30.2849 69.6386 29.8699 69.7062 29.4061C69.7746 28.9424 69.8589 28.4616 69.9609 27.9636C70.0629 27.4654 70.1705 26.9649 70.2835 26.461C70.3968 25.9573 70.4984 25.4822 70.5894 25.0355C70.5781 24.6349 70.462 24.3288 70.241 24.1168C70.0207 23.9053 69.7119 23.8223 69.316 23.8678C69.0444 23.9824 68.8432 24.1314 68.7133 24.3144C68.583 24.4974 68.4781 24.7323 68.3992 25.0183C68.3535 25.1674 68.2858 25.4649 68.1952 25.9115C68.1045 26.3577 67.9887 26.8704 67.8471 27.4484C67.7058 28.0268 67.5386 28.6305 67.3463 29.2601C67.154 29.8897 66.9387 30.4597 66.7015 30.9688C66.4635 31.4782 66.2032 31.8875 65.9203 32.1966C65.6373 32.5056 65.3317 32.6317 65.0034 32.5744C64.8221 32.54 64.7063 32.3511 64.6553 32.0078C64.6043 31.6642 64.5962 31.2409 64.6298 30.737C64.6638 30.2333 64.7318 29.6808 64.8334 29.0799C64.9354 28.4788 65.0399 27.9093 65.1475 27.371C65.2552 26.8331 65.3544 26.3577 65.445 25.9458C65.5353 25.5336 65.5976 25.2588 65.6316 25.1216C65.6316 24.7896 65.5576 24.5236 65.411 24.3229C65.2637 24.1229 65.0856 23.9968 64.8759 23.9451C64.6663 23.8937 64.4513 23.9223 64.2311 24.031C64.0101 24.1399 63.8206 24.3375 63.662 24.6233C63.6053 24.9325 63.5317 25.2904 63.4414 25.6968C63.3507 26.103 63.2632 26.5209 63.1782 26.9503C63.0933 27.3797 63.0139 27.8004 62.9406 28.2126C62.867 28.6248 62.8131 28.9854 62.7791 29.2945C62.7565 29.5348 62.731 29.8298 62.703 30.1788C62.6743 30.5283 62.6602 30.8973 62.6602 31.2864C62.6602 31.676 62.6885 32.0622 62.7455 32.4457C62.8018 32.8293 62.9038 33.1814 63.0508 33.5017C63.1977 33.8223 63.4045 34.0855 63.6708 34.2916C63.9364 34.4977 64.2732 34.6121 64.6808 34.6352C65.0994 34.6578 65.4645 34.6267 65.7761 34.5406C66.0871 34.4548 66.37 34.3202 66.625 34.1369C66.8796 33.9541 67.1115 33.7365 67.3212 33.4844C67.5301 33.2328 67.7369 32.9581 67.9406 32.6603C68.1332 33.0956 68.3822 33.433 68.6878 33.6735C68.9934 33.9138 69.316 34.0572 69.6556 34.1027C69.9949 34.1482 70.3405 34.1001 70.6914 33.9568C71.042 33.8138 71.359 33.5705 71.6419 33.2269C71.8285 33.0163 72.0042 32.7768 72.1692 32.5121C72.2393 32.6361 72.3137 32.7557 72.3976 32.8661C72.6749 33.2328 73.0513 33.4844 73.5269 33.6219C74.0362 33.7594 74.5337 33.7825 75.0207 33.6907C75.5072 33.5993 75.9715 33.433 76.4127 33.1927C76.8543 32.9522 77.2644 32.6633 77.644 32.3254C78.023 31.9877 78.3541 31.6359 78.637 31.2692C78.6257 31.5326 78.62 31.7818 78.62 32.0163C78.62 32.2511 78.6143 32.5056 78.6034 32.7805C78.0371 33.1814 77.5024 33.6622 76.9988 34.223C76.4949 34.7838 76.0533 35.382 75.6744 36.0174C75.2951 36.6526 74.998 37.2968 74.7834 37.9493C74.5681 38.6021 74.4633 39.2117 74.4689 39.7786C74.4746 40.3452 74.6074 40.8402 74.868 41.2636C75.128 41.6875 75.5526 41.9905 76.1411 42.1738C76.7527 42.3687 77.2899 42.3741 77.7545 42.1911C78.2184 42.0077 78.6228 41.7043 78.9681 41.2809C79.3134 40.8574 79.5963 40.3452 79.8173 39.7441C80.0379 39.1431 80.2132 38.5161 80.3436 37.8637C80.4735 37.2112 80.5557 36.5696 80.5897 35.9404C80.6237 35.3105 80.6237 34.7493 80.5897 34.2572C81.5632 33.8452 82.361 33.3243 82.9836 32.6945C83.6061 32.0653 84.121 31.401 84.5286 30.7026C84.6529 30.5309 84.6954 30.3248 84.6561 30.0845C84.6161 29.844 84.5201 29.6379 84.3675 29.4662Z" fill="#23262D"/>
<path fill-rule="evenodd" clip-rule="evenodd" d="M105.787 28.3676C105.821 28.1044 105.872 27.8267 105.94 27.5347C106.008 27.2428 106.093 26.9594 106.195 26.6846C106.297 26.4099 106.416 26.1725 106.552 25.972C106.687 25.7718 106.832 25.6287 106.984 25.5426C107.137 25.457 107.292 25.4655 107.451 25.5683C107.621 25.6716 107.725 25.889 107.765 26.2208C107.805 26.5533 107.765 26.908 107.646 27.2857C107.527 27.6637 107.315 28.0184 107.01 28.3504C106.704 28.6827 106.291 28.8999 105.77 29.0029C105.748 28.843 105.753 28.631 105.787 28.3676ZM111.67 29.0715C111.483 29.0147 111.305 29.0088 111.135 29.0545C110.966 29.1003 110.858 29.2205 110.813 29.4153C110.722 29.7815 110.578 30.1565 110.38 30.5399C110.182 30.9236 109.938 31.287 109.65 31.6305C109.362 31.9739 109.036 32.2774 108.674 32.5406C108.311 32.804 107.932 32.9928 107.536 33.1072C107.14 33.2333 106.811 33.2475 106.552 33.1501C106.291 33.0532 106.084 32.887 105.932 32.6523C105.779 32.4177 105.668 32.1342 105.601 31.8022C105.533 31.4702 105.493 31.1268 105.482 30.7717C106.127 30.8177 106.701 30.7005 107.205 30.4197C107.708 30.1395 108.136 29.7672 108.487 29.3035C108.837 28.84 109.104 28.319 109.285 27.7408C109.466 27.1629 109.568 26.5875 109.59 26.0149C109.602 25.4768 109.523 25.0219 109.353 24.6498C109.183 24.2779 108.954 23.9884 108.665 23.7825C108.377 23.5764 108.045 23.4561 107.672 23.422C107.299 23.3875 106.919 23.4391 106.534 23.5764C106.07 23.7368 105.677 23.9971 105.354 24.3579C105.032 24.7185 104.763 25.1365 104.548 25.6115C104.333 26.0866 104.163 26.5988 104.039 27.1483C103.914 27.6979 103.823 28.2389 103.767 28.7713C103.716 29.2491 103.689 29.7059 103.679 30.1469C103.655 30.2029 103.631 30.2567 103.606 30.3166C103.43 30.7234 103.226 31.1212 102.994 31.5103C102.762 31.8996 102.505 32.2259 102.222 32.4891C101.939 32.7525 101.645 32.844 101.339 32.7639C101.158 32.7183 101.059 32.5061 101.042 32.1286C101.025 31.7506 101.044 31.2813 101.101 30.7203C101.158 30.1595 101.223 29.5524 101.297 28.8999C101.37 28.2474 101.407 27.6236 101.407 27.0282C101.407 26.513 101.31 26.018 101.118 25.5426C100.925 25.0679 100.662 24.6727 100.329 24.3579C99.9948 24.0428 99.6071 23.8339 99.1658 23.7311C98.7242 23.6278 98.249 23.6967 97.7397 23.937C97.2301 24.1775 96.8254 24.5152 96.5258 24.9502C96.2255 25.3855 95.951 25.8433 95.7021 26.3241C95.6114 25.9576 95.4786 25.6174 95.303 25.3023C95.1277 24.9875 94.9127 24.7128 94.6581 24.4779C94.4031 24.2435 94.117 24.0603 93.8008 23.9285C93.4838 23.7971 93.1495 23.7311 92.7986 23.7311C92.4593 23.7311 92.1452 23.7971 91.8566 23.9285C91.568 24.0603 91.3049 24.2289 91.0669 24.435C90.8293 24.6413 90.6143 24.8729 90.4217 25.1306C90.2294 25.3882 90.0594 25.6431 89.9124 25.8947C89.8894 25.5971 89.8643 25.3367 89.8363 25.1132C89.8076 24.8901 89.7566 24.7012 89.6833 24.5468C89.6097 24.3921 89.5052 24.2749 89.3692 24.1947C89.2332 24.1147 89.0409 24.0744 88.792 24.0744C88.6673 24.0744 88.5427 24.1002 88.4184 24.1516C88.2937 24.2032 88.1832 24.2749 88.0873 24.3664C87.9909 24.4583 87.9176 24.5696 87.8666 24.7012C87.8156 24.8328 87.8018 24.9847 87.8241 25.1563C87.8355 25.2825 87.8666 25.4339 87.9176 25.6115C87.9683 25.789 88.0164 26.0211 88.0618 26.3069C88.1071 26.5932 88.1439 26.9396 88.1722 27.3459C88.2006 27.7524 88.2087 28.2504 88.1977 28.84C88.1861 29.4297 88.1439 30.1192 88.0703 30.9092C87.9966 31.6992 87.8804 32.615 87.7221 33.6567C87.6995 33.8972 87.7901 34.092 87.9941 34.2407C88.1977 34.3893 88.4297 34.4752 88.69 34.4982C88.9503 34.5211 89.1967 34.4752 89.4287 34.361C89.6606 34.2462 89.7938 34.046 89.8274 33.7599C89.8614 33.2218 89.9266 32.6495 90.0229 32.0425C90.1189 31.436 90.2379 30.8349 90.3795 30.2395C90.5208 29.6443 90.682 29.0776 90.8633 28.5393C91.0442 28.0012 91.2454 27.5263 91.466 27.114C91.687 26.7019 91.9161 26.3729 92.1537 26.1267C92.3913 25.8805 92.6403 25.7574 92.9009 25.7574C93.2175 25.7574 93.4636 25.9032 93.6393 26.1951C93.8146 26.4873 93.9389 26.8624 94.0129 27.3199C94.0862 27.7781 94.1202 28.2792 94.1149 28.8227C94.1089 29.3665 94.0862 29.8902 94.0469 30.3939C94.0072 30.8979 93.9619 31.3471 93.9109 31.7421C93.8599 32.1371 93.8231 32.4092 93.8008 32.5577C93.8008 32.8212 93.8996 33.0299 94.0975 33.1846C94.2955 33.339 94.5161 33.4307 94.7597 33.4593C95.0034 33.488 95.2322 33.4421 95.4475 33.3218C95.6624 33.2015 95.7871 32.9987 95.8211 32.7122C95.934 31.888 96.0898 31.0611 96.2878 30.231C96.4858 29.401 96.7124 28.657 96.967 27.9986C97.2216 27.3402 97.5046 26.8021 97.8159 26.3842C98.1271 25.9666 98.4583 25.7574 98.8092 25.7574C98.9902 25.7574 99.129 25.8836 99.2249 26.1352C99.3213 26.387 99.3694 26.7304 99.3694 27.1655C99.3694 27.4862 99.3439 27.8153 99.2933 28.153C99.2419 28.4907 99.1828 28.84 99.1148 29.2005C99.0468 29.5613 98.9873 29.9304 98.9363 30.3081C98.8857 30.6861 98.8602 31.0809 98.8602 31.4931C98.8602 31.7793 98.8885 32.1113 98.9452 32.4891C99.0015 32.8667 99.1088 33.2249 99.2674 33.5623C99.4261 33.9002 99.6439 34.1863 99.9215 34.4209C100.199 34.6555 100.552 34.773 100.982 34.773C101.628 34.773 102.199 34.6327 102.697 34.3523C103.195 34.0719 103.623 33.7057 103.979 33.2534C103.998 33.2296 104.015 33.2044 104.033 33.1809C104.06 33.2477 104.084 33.3185 104.115 33.3821C104.358 33.8858 104.689 34.2749 105.108 34.5499C105.527 34.8246 106.019 34.9762 106.586 35.005C107.151 35.0333 107.768 34.9275 108.436 34.6871C108.934 34.5039 109.367 34.2749 109.735 34.0002C110.102 33.7255 110.433 33.3907 110.728 32.9957C111.022 32.6007 111.291 32.1456 111.534 31.6305C111.778 31.1151 112.024 30.5258 112.273 29.8615C112.318 29.6787 112.276 29.5155 112.146 29.3722C112.015 29.2293 111.857 29.1291 111.67 29.0715Z" fill="#23262D"/>
<path fill-rule="evenodd" clip-rule="evenodd" d="M120.898 27.1561C120.841 27.494 120.765 27.8663 120.668 28.2724C120.572 28.679 120.451 29.0996 120.303 29.5347C120.156 29.9698 119.975 30.3619 119.76 30.7109C119.545 31.0604 119.299 31.3377 119.022 31.5438C118.744 31.7499 118.425 31.8358 118.062 31.8013C117.881 31.7787 117.742 31.6528 117.646 31.4236C117.55 31.1948 117.499 30.9027 117.493 30.5478C117.488 30.1931 117.519 29.8038 117.587 29.38C117.655 28.9567 117.759 28.5415 117.901 28.135C118.043 27.7289 118.215 27.3537 118.419 27.0101C118.623 26.6668 118.857 26.4005 119.123 26.2117C119.389 26.0228 119.681 25.9343 119.998 25.9455C120.315 25.957 120.654 26.1171 121.017 26.4263C120.994 26.5753 120.954 26.8186 120.898 27.1561ZM126.933 28.4698C126.758 28.3783 126.577 28.3585 126.39 28.4099C126.204 28.4613 126.07 28.636 125.991 28.9336C125.946 29.2543 125.844 29.6319 125.686 30.0669C125.527 30.502 125.332 30.9144 125.1 31.3033C124.868 31.6926 124.602 32.0162 124.302 32.2736C124.002 32.5314 123.682 32.6488 123.343 32.6255C123.06 32.6029 122.861 32.4569 122.749 32.1878C122.635 31.9188 122.576 31.5813 122.57 31.1745C122.564 30.7684 122.604 30.3105 122.689 29.801C122.774 29.2916 122.876 28.785 122.994 28.2809C123.113 27.7774 123.235 27.2936 123.36 26.8299C123.484 26.3664 123.586 25.9742 123.665 25.6537C123.756 25.3674 123.727 25.1243 123.58 24.9237C123.433 24.7237 123.249 24.5803 123.029 24.4945C122.808 24.4087 122.584 24.3858 122.358 24.4258C122.131 24.466 121.984 24.589 121.916 24.7949C121.249 24.211 120.606 23.8962 119.99 23.8505C119.372 23.8047 118.804 23.9422 118.283 24.2627C117.762 24.5831 117.301 25.0468 116.899 25.6537C116.498 26.2607 116.172 26.9217 115.923 27.6372C115.674 28.3526 115.518 29.0826 115.456 29.8267C115.394 30.5708 115.442 31.2493 115.601 31.8617C115.759 32.4741 116.039 32.9752 116.441 33.3641C116.842 33.7534 117.389 33.9482 118.079 33.9482C118.385 33.9482 118.679 33.8852 118.962 33.7593C119.245 33.6331 119.506 33.4843 119.743 33.3126C119.981 33.141 120.19 32.9606 120.372 32.7717C120.552 32.5828 120.694 32.4255 120.796 32.2994C120.875 32.7116 121.005 33.061 121.187 33.3471C121.367 33.6331 121.574 33.8682 121.806 34.051C122.038 34.234 122.282 34.3686 122.536 34.4547C122.791 34.5405 123.037 34.5834 123.275 34.5834C123.807 34.5834 124.304 34.4002 124.769 34.0338C125.233 33.6678 125.649 33.2181 126.017 32.6859C126.384 32.1534 126.688 31.5926 126.925 31.0029C127.163 30.4134 127.321 29.8896 127.4 29.4314C127.48 29.2598 127.465 29.0796 127.358 28.8907C127.25 28.7018 127.109 28.5617 126.933 28.4698Z" fill="#23262D"/>
<path fill-rule="evenodd" clip-rule="evenodd" d="M157.493 37.9503C157.397 38.3393 157.247 38.6689 157.043 38.9378C156.84 39.2067 156.585 39.3469 156.279 39.3587C156.087 39.3699 155.94 39.2667 155.838 39.0496C155.736 38.8317 155.665 38.5514 155.626 38.2081C155.586 37.8644 155.569 37.4808 155.575 37.0574C155.58 36.6339 155.597 36.2158 155.626 35.8037C155.654 35.3918 155.688 35.0079 155.728 34.6532C155.767 34.2981 155.798 34.0238 155.821 33.829C156.206 33.8748 156.526 34.0434 156.78 34.3356C157.035 34.6275 157.23 34.9737 157.366 35.3745C157.502 35.7752 157.581 36.2076 157.604 36.6709C157.626 37.1347 157.589 37.561 157.493 37.9503ZM151.347 37.9503C151.251 38.3393 151.101 38.6689 150.897 38.9378C150.694 39.2067 150.439 39.3469 150.133 39.3587C149.941 39.3699 149.794 39.2667 149.692 39.0496C149.59 38.8317 149.519 38.5514 149.48 38.2081C149.44 37.8644 149.423 37.4808 149.429 37.0574C149.434 36.6339 149.451 36.2158 149.48 35.8037C149.508 35.3918 149.542 35.0079 149.581 34.6532C149.621 34.2981 149.652 34.0238 149.675 33.829C150.059 33.8748 150.38 34.0434 150.634 34.3356C150.889 34.6275 151.084 34.9737 151.22 35.3745C151.356 35.7752 151.435 36.2076 151.458 36.6709C151.48 37.1347 151.443 37.561 151.347 37.9503ZM145.04 28.1964C145.028 28.4709 145.003 28.7143 144.963 28.9261C144.924 29.1383 144.87 29.2725 144.802 29.3298C144.677 29.2609 144.524 29.0838 144.343 28.7973C144.162 28.5113 144.021 28.1875 143.919 27.8269C143.817 27.4664 143.786 27.1117 143.826 26.7623C143.865 26.4133 144.044 26.1416 144.36 25.9466C144.485 25.878 144.592 25.9037 144.683 26.0239C144.774 26.1442 144.847 26.3187 144.904 26.5477C144.96 26.7769 145 27.04 145.023 27.3376C145.045 27.6354 145.051 27.9215 145.04 28.1964ZM143.537 31.6223C143.361 31.811 143.166 31.9741 142.951 32.1116C142.736 32.2491 142.515 32.3521 142.289 32.4208C142.063 32.4896 141.859 32.5066 141.678 32.4722C141.169 32.3694 140.778 32.1458 140.506 31.8025C140.235 31.4591 140.062 31.0556 139.989 30.5921C139.915 30.1282 139.923 29.633 140.014 29.1065C140.105 28.5799 140.257 28.0906 140.472 27.6383C140.687 27.186 140.948 26.7967 141.253 26.4706C141.559 26.1442 141.893 25.9412 142.255 25.8607C142.119 26.4446 142.074 27.0487 142.119 27.6725C142.165 28.2964 142.312 28.8831 142.561 29.4326C142.719 29.7651 142.909 30.0681 143.13 30.3428C143.35 30.6178 143.619 30.8524 143.936 31.0469C143.846 31.2417 143.712 31.4334 143.537 31.6223ZM162.324 28.3681C162.358 28.105 162.408 27.8269 162.477 27.535C162.544 27.2433 162.629 26.9599 162.731 26.6851C162.833 26.4102 162.952 26.1727 163.088 25.9725C163.224 25.7723 163.368 25.6289 163.521 25.5431C163.674 25.4573 163.829 25.4658 163.987 25.5688C164.157 25.6721 164.262 25.8895 164.301 26.2213C164.341 26.5536 164.301 26.9082 164.183 27.2862C164.064 27.664 163.852 28.0189 163.546 28.3507C163.241 28.6831 162.827 28.9004 162.307 29.0034C162.284 28.8433 162.29 28.6315 162.324 28.3681ZM169.166 28.3681C169.2 28.105 169.251 27.8269 169.319 27.535C169.387 27.2433 169.472 26.9599 169.574 26.6851C169.675 26.4102 169.794 26.1727 169.93 25.9725C170.066 25.7723 170.21 25.6289 170.363 25.5431C170.516 25.4573 170.671 25.4658 170.83 25.5688C171 25.6721 171.104 25.8895 171.144 26.2213C171.184 26.5536 171.144 26.9082 171.025 27.2862C170.906 27.664 170.694 28.0189 170.389 28.3507C170.083 28.6831 169.67 28.9004 169.149 29.0034C169.126 28.8433 169.132 28.6315 169.166 28.3681ZM175.524 29.3727C175.394 29.2298 175.236 29.1295 175.049 29.072C174.862 29.0149 174.684 29.0093 174.514 29.055C174.345 29.1008 174.236 29.2211 174.192 29.4156C174.101 29.7821 173.957 30.157 173.759 30.5402C173.56 30.9241 173.317 31.2875 173.029 31.6308C172.74 31.9741 172.415 32.2779 172.053 32.541C171.69 32.8044 171.311 32.9933 170.915 33.1075C170.519 33.2338 170.19 33.248 169.93 33.1506C169.67 33.0534 169.463 32.8874 169.31 32.6528C169.158 32.418 169.047 32.1347 168.979 31.8025C168.911 31.4707 168.871 31.1273 168.86 30.7722C169.506 30.8182 170.08 30.701 170.584 30.4202C171.087 30.1398 171.515 29.7674 171.866 29.3038C172.217 28.8404 172.482 28.3195 172.663 27.7413C172.844 27.1631 172.946 26.588 172.969 26.0154C172.98 25.4773 172.901 25.0222 172.731 24.6501C172.562 24.2782 172.333 23.9889 172.044 23.783C171.755 23.5767 171.424 23.4566 171.05 23.4222C170.677 23.3878 170.298 23.4397 169.913 23.5767C169.449 23.7372 169.056 23.9976 168.733 24.3582C168.411 24.7189 168.142 25.137 167.927 25.6117C167.711 26.0871 167.542 26.5991 167.417 27.1487C167.292 27.6982 167.202 28.2394 167.146 28.7716C167.091 29.2881 167.061 29.7825 167.054 30.2557C167.011 30.35 166.966 30.4448 166.916 30.5402C166.718 30.9241 166.475 31.2875 166.186 31.6308C165.898 31.9741 165.572 32.2779 165.21 32.541C164.848 32.8044 164.469 32.9933 164.073 33.1075C163.676 33.2338 163.348 33.248 163.088 33.1506C162.827 33.0534 162.621 32.8874 162.468 32.6528C162.315 32.418 162.205 32.1347 162.137 31.8025C162.069 31.4707 162.029 31.1273 162.018 30.7722C162.663 30.8182 163.238 30.701 163.742 30.4202C164.245 30.1398 164.672 29.7674 165.023 29.3038C165.374 28.8404 165.64 28.3195 165.821 27.7413C166.002 27.1631 166.104 26.588 166.127 26.0154C166.138 25.4773 166.059 25.0222 165.889 24.6501C165.719 24.2782 165.49 23.9889 165.201 23.783C164.913 23.5767 164.582 23.4566 164.208 23.4222C163.835 23.3878 163.455 23.4397 163.071 23.5767C162.606 23.7372 162.213 23.9976 161.891 24.3582C161.568 24.7189 161.299 25.137 161.084 25.6117C160.869 26.0871 160.7 26.5991 160.575 27.1487C160.45 27.6982 160.36 28.2394 160.303 28.7716C160.271 29.0718 160.25 29.3629 160.234 29.6487C160.124 29.7428 160.018 29.8376 159.904 29.9306C159.514 30.2513 159.103 30.5402 158.673 30.7979C158.243 31.0556 157.796 31.2674 157.332 31.4334C156.868 31.5994 156.392 31.6997 155.906 31.7339L156.959 20.3312C157.027 20.0907 156.993 19.8791 156.857 19.6959C156.721 19.5127 156.545 19.3868 156.33 19.3181C156.115 19.2493 155.886 19.2552 155.643 19.3351C155.399 19.4155 155.199 19.5988 155.04 19.8846C154.961 20.3199 154.878 20.915 154.794 21.6706C154.709 22.4261 154.624 23.2505 154.539 24.1436C154.454 25.0366 154.369 25.9581 154.285 26.9082C154.2 27.8587 154.126 28.7459 154.064 29.5701C154.061 29.6067 154.059 29.6398 154.056 29.6759C153.957 29.7609 153.861 29.8465 153.758 29.9306C153.368 30.2513 152.957 30.5402 152.527 30.7979C152.097 31.0556 151.65 31.2674 151.186 31.4334C150.722 31.5994 150.246 31.6997 149.759 31.7339L150.812 20.3312C150.88 20.0907 150.846 19.8791 150.711 19.6959C150.575 19.5127 150.399 19.3868 150.184 19.3181C149.969 19.2493 149.74 19.2552 149.496 19.3351C149.253 19.4155 149.052 19.5988 148.894 19.8846C148.814 20.3199 148.733 20.915 148.648 21.6706C148.563 22.4261 148.478 23.2505 148.393 24.1436C148.308 25.0366 148.223 25.9581 148.138 26.9082C148.054 27.8587 147.98 28.7459 147.918 29.5701C147.916 29.5866 147.915 29.6016 147.914 29.6182C147.736 29.7016 147.542 29.7749 147.332 29.8363C147.117 29.8995 146.873 29.9367 146.602 29.9481C146.647 29.7417 146.684 29.5128 146.712 29.2609C146.74 29.0093 146.763 28.7459 146.78 28.4709C146.797 28.1964 146.803 27.9215 146.797 27.6468C146.791 27.3718 146.777 27.1202 146.755 26.891C146.698 26.3991 146.593 25.9324 146.441 25.4915C146.288 25.0509 146.081 24.6819 145.821 24.3839C145.56 24.0862 145.235 23.8858 144.844 23.783C144.454 23.6799 143.998 23.7142 143.478 23.8858C142.708 23.783 142.015 23.8547 141.398 24.1006C140.781 24.3471 140.246 24.7045 139.793 25.1738C139.341 25.6435 138.97 26.1956 138.681 26.8311C138.393 27.4664 138.2 28.1191 138.104 28.7886C138.063 29.0724 138.044 29.355 138.037 29.6369C137.862 29.9999 137.67 30.3171 137.459 30.5833C137.159 30.9611 136.848 31.2703 136.525 31.5106C136.202 31.7511 135.883 31.9343 135.566 32.0602C135.249 32.1863 134.966 32.2722 134.717 32.3177C134.423 32.375 134.14 32.3809 133.868 32.335C133.596 32.2894 133.347 32.1576 133.121 31.94C132.94 31.7798 132.801 31.5221 132.705 31.1672C132.609 30.8123 132.552 30.4091 132.535 29.9565C132.518 29.5043 132.535 29.0319 132.586 28.5398C132.637 28.0477 132.724 27.581 132.849 27.1403C132.974 26.6995 133.132 26.3045 133.325 25.9551C133.517 25.6063 133.743 25.357 134.004 25.2082C134.151 25.2313 134.242 25.3198 134.276 25.4743C134.31 25.6289 134.318 25.8122 134.301 26.0239C134.284 26.2359 134.259 26.4533 134.225 26.6764C134.191 26.8997 134.174 27.086 134.174 27.2346C134.23 27.5437 134.34 27.7843 134.505 27.9559C134.669 28.1276 134.853 28.228 135.056 28.2564C135.26 28.2851 135.461 28.2365 135.66 28.1104C135.857 27.9847 136.018 27.7843 136.143 27.5093C136.154 27.5208 136.171 27.5265 136.194 27.5265L136.432 25.3457C136.5 25.0479 136.454 24.7847 136.296 24.5558C136.137 24.3268 135.928 24.195 135.668 24.1608C135.339 23.6799 134.895 23.4253 134.335 23.3965C133.774 23.368 133.2 23.554 132.612 23.9547C132.249 24.2183 131.929 24.5815 131.652 25.0451C131.375 25.5089 131.149 26.0239 130.973 26.5906C130.797 27.1572 130.673 27.7557 130.6 28.3853C130.526 29.0149 130.512 29.6276 130.557 30.2226C130.602 30.8182 130.707 31.3792 130.871 31.9055C131.035 32.4323 131.264 32.8731 131.559 33.2278C131.808 33.5369 132.091 33.7632 132.408 33.9064C132.724 34.0495 133.056 34.138 133.401 34.1724C133.746 34.2066 134.089 34.1922 134.428 34.1295C134.768 34.0667 135.09 33.9781 135.396 33.8632C135.792 33.7147 136.2 33.5255 136.618 33.2966C137.037 33.0678 137.439 32.7929 137.824 32.4722C138.027 32.3036 138.221 32.1197 138.41 31.9225C138.495 32.1378 138.591 32.3461 138.707 32.541C139.012 33.0561 139.425 33.4741 139.946 33.7946C140.466 34.1151 141.106 34.2693 141.865 34.2582C142.68 34.2467 143.432 34.038 144.123 33.6314C144.813 33.2253 145.379 32.6267 145.821 31.8369C146.482 31.8369 147.133 31.7267 147.772 31.5077C147.767 31.577 147.761 31.65 147.756 31.7169C147.711 32.3236 147.688 32.7356 147.688 32.9532C147.677 33.331 147.652 33.7975 147.612 34.3526C147.572 34.9079 147.547 35.4918 147.536 36.104C147.525 36.7166 147.547 37.3349 147.604 37.9589C147.66 38.5826 147.779 39.1495 147.96 39.6593C148.141 40.1683 148.398 40.6007 148.733 40.9559C149.066 41.3103 149.505 41.5224 150.048 41.5911C150.626 41.6709 151.124 41.5681 151.543 41.2819C151.961 40.9954 152.301 40.6036 152.561 40.1057C152.822 39.6075 153.005 39.0323 153.113 38.3799C153.22 37.7271 153.252 37.0717 153.207 36.4132C153.161 35.7549 153.042 35.134 152.85 34.5504C152.657 33.9663 152.391 33.4855 152.052 33.1075C152.256 33.0506 152.499 32.9419 152.782 32.7814C153.065 32.6212 153.356 32.4408 153.656 32.2404C153.73 32.1912 153.803 32.1393 153.876 32.0887C153.849 32.4944 153.834 32.7837 153.834 32.9532C153.823 33.331 153.798 33.7975 153.758 34.3526C153.719 34.9079 153.693 35.4918 153.682 36.104C153.67 36.7166 153.693 37.3349 153.75 37.9589C153.806 38.5826 153.925 39.1495 154.106 39.6593C154.287 40.1683 154.545 40.6007 154.878 40.9559C155.212 41.3103 155.651 41.5224 156.195 41.5911C156.772 41.6709 157.269 41.5681 157.688 41.2819C158.107 40.9954 158.447 40.6036 158.707 40.1057C158.968 39.6075 159.151 39.0323 159.259 38.3799C159.367 37.7271 159.397 37.0717 159.352 36.4132C159.307 35.7549 159.188 35.134 158.996 34.5504C158.803 33.9663 158.538 33.4855 158.198 33.1075C158.402 33.0506 158.645 32.9419 158.928 32.7814C159.211 32.6212 159.502 32.4408 159.803 32.2404C159.958 32.1363 160.113 32.0289 160.268 31.9184C160.326 32.4783 160.451 32.9694 160.651 33.3824C160.895 33.8863 161.225 34.2754 161.644 34.5504C162.063 34.8249 162.556 34.9767 163.122 35.0053C163.688 35.0336 164.304 34.9279 164.972 34.6874C165.47 34.5044 165.903 34.2754 166.271 34.0007C166.639 33.7258 166.97 33.3909 167.264 32.9961C167.281 32.9733 167.297 32.9484 167.314 32.9254C167.366 33.0857 167.424 33.2397 167.494 33.3824C167.737 33.8863 168.068 34.2754 168.487 34.5504C168.905 34.8249 169.398 34.9767 169.964 35.0053C170.53 35.0336 171.147 34.9279 171.815 34.6874C172.313 34.5044 172.746 34.2754 173.114 34.0007C173.481 33.7258 173.812 33.3909 174.107 32.9961C174.401 32.601 174.67 32.1458 174.913 31.6308C175.157 31.1156 175.403 30.5262 175.652 29.862C175.697 29.679 175.654 29.5158 175.524 29.3727Z" fill="#23262D"/>
</svg>
