<svg width="45" height="50" viewBox="0 0 45 50" fill="none" xmlns="http://www.w3.org/2000/svg">
<g clip-path="url(#clip0_1713_2369)">
<path d="M43.8653 37.4999C44.214 36.896 44.4306 36.2155 44.4306 35.6045V14.3952C44.4306 13.7842 44.2143 13.1039 43.8655 12.5L22.2148 24.9999L43.8653 37.4999Z" fill="#DD7070"/>
<path d="M24.1408 49.5416L42.5088 38.937C43.0379 38.6315 43.5188 38.104 43.8674 37.4999L22.2169 25L0.566406 37.5001C0.915034 38.104 1.39609 38.6316 1.92505 38.937L20.293 49.5416C21.3511 50.1526 23.0827 50.1526 24.1408 49.5416Z" fill="#DD7070"/>
<path d="M43.8664 12.4999C43.5176 11.8959 43.0366 11.3684 42.5076 11.0629L24.1397 0.458255C23.0816 -0.152752 21.3499 -0.152752 20.2919 0.458255L1.92391 11.0629C0.865689 11.6737 0 13.1734 0 14.3952V35.6046C0 36.2156 0.216495 36.896 0.565268 37.4999L22.2158 25L43.8664 12.4999Z" fill="#DD7070"/>
<path d="M22.2168 39.8105C14.0502 39.8105 7.40625 33.1665 7.40625 25C7.40625 16.8334 14.0502 10.1895 22.2168 10.1895C27.4864 10.1895 32.401 13.0252 35.0425 17.5901L28.6329 21.2991C27.3109 19.0142 24.8522 17.5947 22.2168 17.5947C18.1334 17.5947 14.8115 20.9166 14.8115 25C14.8115 29.0832 18.1334 32.4052 22.2168 32.4052C24.8525 32.4052 27.3111 30.9857 28.6333 28.7004L35.043 32.4093C32.4015 36.9746 27.4867 39.8105 22.2168 39.8105Z" fill="white"/>
<path d="M37.0267 24.1771H35.381V22.5315H33.7356V24.1771H32.0898V25.8226H33.7356V27.4683H35.381V25.8226H37.0267V24.1771Z" fill="white"/>
<path d="M43.1986 24.1771H41.5528V22.5315H39.9074V24.1771H38.2617V25.8226H39.9074V27.4683H41.5528V25.8226H43.1986V24.1771Z" fill="white"/>
</g>
<defs>
<clipPath id="clip0_1713_2369">
<rect width="44.4315" height="50" fill="white"/>
</clipPath>
</defs>
</svg>
