<svg width="16" height="16" viewBox="0 0 16 16" fill="none" xmlns="http://www.w3.org/2000/svg">
<path d="M12.0004 0.00332907L9.92554 0C7.59455 0 6.08817 1.54552 6.08817 3.93762V5.75313H4.00203C3.82176 5.75313 3.67578 5.89927 3.67578 6.07954V8.71001C3.67578 8.89028 3.82193 9.03625 4.00203 9.03625H6.08817V15.6738C6.08817 15.854 6.23414 16 6.41441 16H9.13623C9.3165 16 9.46247 15.8539 9.46247 15.6738V9.03625H11.9017C12.0819 9.03625 12.2279 8.89028 12.2279 8.71001L12.2289 6.07954C12.2289 5.99299 12.1944 5.91009 12.1334 5.84884C12.0723 5.78758 11.989 5.75313 11.9025 5.75313H9.46247V4.2141C9.46247 3.47438 9.63875 3.09886 10.6023 3.09886L12 3.09836C12.1801 3.09836 12.3261 2.95222 12.3261 2.77211V0.329578C12.3261 0.149642 12.1803 0.00366197 12.0004 0.00332907Z" fill="#E36F59"/>
</svg>
