<svg width="17" height="16" viewBox="0 0 17 16" fill="none" xmlns="http://www.w3.org/2000/svg">
<path d="M15.9922 16C14.8828 16 13.7922 16 12.6828 16C12.6828 15.9312 12.6828 15.8718 12.6828 15.8093C12.6828 14.0117 12.6859 12.2141 12.6766 10.4166C12.6734 10.0445 12.6359 9.66627 12.5641 9.30051C12.3609 8.2751 11.6891 7.88745 10.6953 7.98749C9.75156 8.0844 9.22344 8.59711 9.06719 9.57249C9.00469 9.96639 8.97656 10.3697 8.97344 10.7698C8.96406 12.4486 8.97031 14.1243 8.97031 15.803C8.97031 15.8656 8.97031 15.925 8.97031 15.9969C7.86406 15.9969 6.76719 15.9969 5.66406 15.9969C5.66406 12.4392 5.66406 8.89097 5.66406 5.32708C6.71719 5.32708 7.76406 5.32708 8.83594 5.32708C8.83594 5.80226 8.83594 6.28058 8.83594 6.80578C8.88594 6.74951 8.90781 6.73075 8.92344 6.70887C9.48281 5.78038 10.3266 5.26768 11.3734 5.10512C12.2391 4.97069 13.0984 5.04259 13.9203 5.38022C14.8641 5.76475 15.4016 6.50566 15.6891 7.45603C15.9047 8.16569 15.9859 8.8941 15.9922 9.62876C16.0047 11.7233 15.9984 13.8179 16.0016 15.9125C15.9984 15.9375 15.9953 15.9625 15.9922 16Z" fill="#E36F59"/>
<path d="M0.273438 15.9969C0.273438 12.4361 0.273438 8.88473 0.273438 5.32709C1.37344 5.32709 2.46406 5.32709 3.57031 5.32709C3.57031 8.87848 3.57031 12.433 3.57031 15.9969C2.47656 15.9969 1.37969 15.9969 0.273438 15.9969Z" fill="#E36F59"/>
<path d="M1.92188 3.86402C0.86875 3.86402 0 2.98555 0 1.92263C0 0.862845 0.86875 -0.00311778 1.93125 8.43798e-06C2.98438 0.00313466 3.84375 0.869098 3.84375 1.92576C3.84375 2.98555 2.97187 3.86402 1.92188 3.86402Z" fill="#E36F59"/>
</svg>
