<svg width="50" height="50" viewBox="0 0 50 50" fill="none" xmlns="http://www.w3.org/2000/svg">
<path d="M50 0H0V50H50V0Z" fill="#F7DF1E"/>
<path d="M33.5863 39.0627C34.5934 40.7072 35.9037 41.9159 38.2212 41.9159C40.168 41.9159 41.4117 40.9429 41.4117 39.5984C41.4117 37.9873 40.1339 37.4167 37.991 36.4794L36.8164 35.9754C33.426 34.531 31.1736 32.7214 31.1736 28.896C31.1736 25.3722 33.8585 22.6897 38.0545 22.6897C41.0418 22.6897 43.1894 23.7294 44.7371 26.4516L41.0783 28.8008C40.2728 27.3564 39.4037 26.7873 38.0545 26.7873C36.6783 26.7873 35.8061 27.6603 35.8061 28.8008C35.8061 30.2103 36.6791 30.781 38.695 31.654L39.8696 32.1572C43.8617 33.8691 46.1156 35.6143 46.1156 39.5381C46.1156 43.7683 42.7926 46.0857 38.3299 46.0857C33.9664 46.0857 31.1474 44.0064 29.768 41.281L33.5863 39.0627ZM16.9887 39.4699C17.7268 40.7794 18.3982 41.8865 20.0125 41.8865C21.5561 41.8865 22.5299 41.2826 22.5299 38.9341V22.9579H27.2283V38.9976C27.2283 43.8627 24.376 46.077 20.2125 46.077C16.4506 46.077 14.272 44.1302 13.1641 41.7853L16.9887 39.4699Z" fill="black"/>
</svg>
