<svg width="107" height="16" viewBox="0 0 107 16" fill="none" xmlns="http://www.w3.org/2000/svg">
<path fill-rule="evenodd" clip-rule="evenodd" d="M16.3456 15.7172V7.49336C16.3456 5.16047 15.154 4.05296 13.153 4.05296C11.4891 4.05296 10.0503 5.08983 9.42066 6.12657C9.01592 4.83055 8.0042 4.05296 6.40789 4.05296C4.74404 4.05296 3.30519 5.13689 2.85543 5.82023V4.33583H0V15.7172H2.85543V8.05898C3.28268 7.42271 4.11454 6.71577 5.10375 6.71577C6.27294 6.71577 6.72258 7.46977 6.72258 8.53023V15.7172H9.60052V8.03538C10.0053 7.4227 10.8371 6.71577 11.8488 6.71577C13.018 6.71577 13.4677 7.46977 13.4677 8.53023L13.4678 15.7172H16.3456ZM24.1925 16C20.6176 16 18.4591 13.2665 18.4591 10.0147C18.4591 6.78643 20.6175 4.05308 24.1925 4.05308C27.7898 4.05308 29.9483 6.78656 29.9483 10.0147C29.9483 13.2665 27.79 16 24.1925 16ZM24.1925 13.3373C25.9686 13.3373 26.9805 11.8056 26.9805 10.0147C26.9805 8.24748 25.9688 6.71577 24.1925 6.71577C22.4162 6.71577 21.427 8.24748 21.427 10.0147C21.427 11.8056 22.4163 13.3373 24.1925 13.3373ZM42.2469 15.7172V7.68186C42.2469 5.46682 41.1003 4.05296 38.717 4.05296C36.9408 4.05296 35.6143 4.94839 34.9173 5.82023V4.33583H32.0617V15.7172H34.9173V8.05898C35.3894 7.37565 36.2663 6.71577 37.3905 6.71577C38.6046 6.71577 39.3915 7.25781 39.3915 8.83657V15.7172H42.2469ZM50.1162 16C46.5413 16 44.3828 13.2665 44.3828 10.0147C44.3828 6.78643 46.5412 4.05308 50.1162 4.05308C53.7136 4.05308 55.8721 6.78656 55.8721 10.0147C55.8721 13.2665 53.7137 16 50.1162 16ZM50.1162 13.3373C51.8924 13.3373 52.9042 11.8056 52.9042 10.0147C52.9042 8.24748 51.8925 6.71577 50.1162 6.71577C48.3399 6.71577 47.3507 8.24748 47.3507 10.0147C47.3507 11.8056 48.34 13.3373 50.1162 13.3373ZM60.8409 12.0648C61.313 12.7953 62.3698 13.3372 63.2916 13.3372C64.9554 13.3372 66.0571 12.0176 66.0571 10.0382C66.0571 8.05886 64.9554 6.71565 63.2916 6.71565C62.3698 6.71565 61.313 7.28114 60.8409 8.03526V12.0648ZM60.8409 15.7172H57.9855V0H60.8409V5.79675C61.6953 4.64217 62.9093 4.05296 64.191 4.05296C66.9565 4.05296 69.0025 6.31506 69.0025 10.0382C69.0025 13.832 66.9341 15.9999 64.191 15.9999C62.887 15.9999 61.6953 15.3872 60.8409 14.2561V15.7172ZM80.5367 15.7172H77.6813V14.5391C76.9393 15.4581 75.6577 16 74.2412 16C72.51 16 70.464 14.7746 70.464 12.2298C70.464 9.56709 72.5101 8.55382 74.2412 8.55382C75.6802 8.55382 76.9617 9.04866 77.6813 9.94409V8.41238C77.6813 7.2578 76.737 6.50369 75.298 6.50369C74.1288 6.50369 73.0497 6.95146 72.1278 7.84689L71.0485 5.84394C72.375 4.61858 74.0838 4.05308 75.7925 4.05308C78.2657 4.05308 80.5366 5.08995 80.5366 8.36533L80.5367 15.7172ZM75.3879 13.9735C76.3097 13.9735 77.2091 13.6435 77.6813 12.9838V11.5699C77.2091 10.9102 76.3097 10.5802 75.3879 10.5802C74.2638 10.5802 73.3419 11.1929 73.3419 12.3004C73.3419 13.3608 74.2636 13.9735 75.3879 13.9735ZM93.5547 15.7172V7.68186C93.5547 5.46682 92.4081 4.05296 90.0248 4.05296C88.2486 4.05296 86.9221 4.94839 86.225 5.82023V4.33583H83.3696V15.7172H86.225V8.05898C86.6972 7.37565 87.5741 6.71577 88.6982 6.71577C89.9123 6.71577 90.6993 7.25781 90.6993 8.83657V15.7172H93.5547ZM107 15.7172L102.571 9.49631L106.865 4.33583H103.358L99.2431 9.40206V0H96.3876V15.7172H99.2431V12.7953L100.547 11.3344L103.425 15.7172H107Z" fill="black"/>
</svg>
