<svg width="116" height="27" viewBox="0 0 116 27" fill="none" xmlns="http://www.w3.org/2000/svg">
<g clip-path="url(#clip0_84_23473)">
<path d="M14.2238 0C14.9902 0.14026 15.7705 0.231429 16.5231 0.420779C21.7155 1.72519 25.6512 6.19948 26.3831 11.5995C27.3567 18.7808 22.7581 25.3449 15.7498 26.7686C15.2457 26.8738 14.7279 26.9299 14.2169 27.007C11.8693 27.007 9.52167 27.007 7.17405 27.007C7.17405 22.4836 7.17405 17.9603 7.18095 13.4439C7.18095 13.1423 7.20857 12.8338 7.2569 12.5392C7.71262 9.5026 10.44 7.20935 13.4298 7.32857C16.5852 7.46182 19.1193 9.9374 19.3195 13.0932C19.6164 17.7779 14.9212 21.067 10.7162 19.1174C10.6264 19.0753 10.5367 19.0403 10.4055 18.9912C10.4055 20.4288 10.3986 21.8174 10.4193 23.206C10.4193 23.2901 10.5781 23.4164 10.6817 23.4444C12.0281 23.8371 13.4021 23.9143 14.7831 23.6899C20.6245 22.7361 24.3945 17.1047 23.131 11.2558C21.964 5.84182 16.6336 2.30026 11.3238 3.4013C6.5181 4.38312 3.16238 8.54883 3.14857 13.5421C3.14167 17.9112 3.14857 22.2803 3.14857 26.6494C3.14857 26.7686 3.16238 26.8808 3.17619 27C2.11976 27 1.05643 27 0 27C0 22.161 0 17.3221 0 12.4831C0.0414286 12.2096 0.0897619 11.9361 0.124286 11.6556C0.85619 6.20649 4.77119 1.74623 10.0257 0.413766C10.7714 0.224416 11.5379 0.133247 12.2905 0C12.9326 0 13.5817 0 14.2238 0Z" fill="#E6461A"/>
<path d="M116.002 19.0753C115.29 19.0753 114.579 19.0753 113.813 19.0753C113.813 18.5353 113.813 18.0024 113.813 17.4694C113.806 15.4005 113.813 13.3317 113.792 11.2629C113.771 9.64287 112.57 8.18417 111.009 7.85456C108.869 7.39872 106.694 9.15898 106.687 11.3891C106.68 13.8086 106.694 16.2281 106.701 18.6475C106.701 18.7878 106.701 18.9211 106.701 19.0824C105.976 19.0824 105.292 19.0824 104.574 19.0824C104.574 14.8114 104.574 10.5405 104.574 6.23456C105.258 6.23456 105.948 6.23456 106.68 6.23456C106.68 6.44495 106.68 6.66235 106.68 6.94287C107.371 6.31872 108.103 5.933 108.931 5.72261C112.19 4.88807 115.601 7.32157 115.933 10.7159C115.939 10.814 115.974 10.9192 115.995 11.0174C116.002 13.6964 116.002 16.3894 116.002 19.0753Z" fill="#222C31"/>
<path d="M33.267 17.6377C33.267 19.7696 33.267 21.8946 33.267 24.0475C32.542 24.0475 31.8584 24.0475 31.1541 24.0475C31.1472 23.9564 31.1334 23.8652 31.1334 23.774C31.1334 20.0431 31.1196 16.3192 31.1403 12.5883C31.161 9.21507 33.4879 6.3678 36.7332 5.70156C40.6344 4.90208 44.4527 7.68624 44.9637 11.6977C45.4677 15.653 42.7887 19.2016 38.8806 19.6784C36.8298 19.9239 35.0622 19.2086 33.5432 17.82C33.4741 17.7569 33.4396 17.6447 33.3844 17.5535C33.3429 17.5816 33.3084 17.6096 33.267 17.6377ZM38.0934 17.5605C40.7656 17.5535 42.8991 15.3655 42.8991 12.6444C42.8922 9.9304 40.731 7.73533 38.0727 7.74936C35.4075 7.76338 33.267 9.95143 33.2739 12.6725C33.267 15.3795 35.4213 17.5675 38.0934 17.5605Z" fill="#222C31"/>
<path d="M77.866 15.5197C78.8879 17.1047 81.0491 17.8901 82.9618 17.3712C84.1287 17.0556 85.0608 16.3753 85.7306 15.3584C86.4003 14.3415 86.6489 13.2054 86.5039 11.9641C87.2289 11.9641 87.9263 11.9641 88.6168 11.9641C88.9965 14.6782 87.4015 18.2197 83.8249 19.3769C80.4415 20.4709 76.7889 18.7878 75.3596 15.4847C73.9234 12.1675 75.187 8.27531 78.301 6.47297C81.5256 4.60751 85.1368 5.82777 86.8215 7.86855C83.8387 10.4143 80.8627 12.96 77.866 15.5197ZM76.9684 13.4509C79.1158 11.6205 81.201 9.8392 83.307 8.03686C81.6982 7.3566 79.6475 7.81245 78.3425 9.1379C77.1963 10.3091 76.7613 11.7327 76.9684 13.4509Z" fill="#222C31"/>
<path d="M59.6567 19.0823C58.9317 19.0823 58.2412 19.0823 57.5231 19.0823C57.5231 18.6475 57.5231 18.2338 57.5231 17.7569C57.4126 17.848 57.3505 17.8971 57.2952 17.9462C53.3388 21.4247 47.2419 19.4891 45.9576 14.3486C44.7769 9.60779 48.616 5.09843 53.401 5.58934C56.9224 5.95402 59.6153 8.93454 59.6498 12.5252C59.6705 14.6291 59.6567 16.733 59.6567 18.8369C59.6567 18.907 59.6567 18.9771 59.6567 19.0823ZM47.8841 12.6234C47.8772 15.3164 50.0245 17.5254 52.6622 17.5395C55.3274 17.5465 57.5162 15.3795 57.5231 12.7145C57.53 9.93038 55.4033 7.72831 52.7174 7.72831C50.0522 7.71428 47.891 9.90934 47.8841 12.6234Z" fill="#222C31"/>
<path d="M89.4375 12.6234C89.4444 8.72419 92.5654 5.55432 96.3906 5.55432C100.23 5.55432 103.364 8.75926 103.344 12.6585C103.323 16.5647 100.209 19.7135 96.3699 19.7065C92.5446 19.6995 89.4306 16.5226 89.4375 12.6234ZM96.3837 17.5325C99.0489 17.5325 101.217 15.3445 101.217 12.6374C101.224 9.93744 99.0558 7.72133 96.4044 7.71432C93.7461 7.70731 91.5711 9.90939 91.5642 12.6094C91.5642 15.3234 93.7254 17.5325 96.3837 17.5325Z" fill="#222C31"/>
<path d="M60.332 6.19249C60.7532 6.19249 61.1261 6.19249 61.5542 6.19249C61.5542 4.53041 61.5542 2.88937 61.5542 1.22729C62.2861 1.22729 62.9697 1.22729 63.6947 1.22729C63.6947 2.87535 63.6947 4.51639 63.6947 6.19249C64.7787 6.19249 65.8213 6.19249 66.8847 6.19249C66.8847 6.92184 66.8847 7.61613 66.8847 8.3595C65.8351 8.3595 64.7856 8.3595 63.7016 8.3595C63.7016 11.9572 63.7016 15.5057 63.7016 19.0753C62.9835 19.0753 62.2999 19.0753 61.5749 19.0753C61.5749 18.9211 61.5749 18.7878 61.5749 18.6546C61.5749 15.3585 61.568 12.0624 61.5818 8.76626C61.5818 8.45067 61.5058 8.32444 61.1813 8.3595C60.912 8.38755 60.6358 8.36652 60.3389 8.36652C60.332 7.63716 60.332 6.94288 60.332 6.19249Z" fill="#222C31"/>
<path d="M70.1191 8.07199C71.1341 7.14628 72.2941 6.5081 73.6337 6.26965C74.1032 6.1855 74.5865 6.17849 75.0975 6.12939C75.0975 6.84472 75.0975 7.4829 75.0975 8.12108C75.0975 8.36654 74.9179 8.32446 74.7798 8.32446C73.7165 8.33849 72.7637 8.68212 71.942 9.34836C70.7475 10.3091 70.0984 11.5715 70.0777 13.1284C70.057 14.9728 70.0708 16.8242 70.0708 18.6686C70.0708 18.7949 70.0708 18.9211 70.0708 19.0754C69.3596 19.0754 68.676 19.0754 67.9648 19.0754C67.9648 14.7904 67.9648 10.5125 67.9648 6.22056C68.6346 6.22056 69.3113 6.22056 70.0294 6.22056C70.0294 6.82368 70.0294 7.4268 70.0294 8.02991C70.0639 8.04394 70.0915 8.05797 70.1191 8.07199Z" fill="#222C31"/>
</g>
<defs>
<clipPath id="clip0_84_23473">
<rect width="116" height="27" fill="white"/>
</clipPath>
</defs>
</svg>
