<svg width="102" height="32" viewBox="0 0 102 32" fill="none" xmlns="http://www.w3.org/2000/svg">
<path d="M15.6932 0.101807C24.3031 0.101807 31.2849 7.22084 31.2849 16C31.2849 24.7791 24.3031 31.8981 15.6932 31.8981C7.08335 31.8981 0.101562 24.7791 0.101562 16C0.101562 7.22084 7.08335 0.101807 15.6932 0.101807Z" fill="url(#paint0_linear_84_23456)"/>
<path d="M15.6915 0C7.03173 0 0 7.15977 0 16C0 24.8402 7.02174 32 15.6915 32C24.3613 32 31.3831 24.8402 31.3831 16C31.3831 7.15977 24.3613 0 15.6915 0ZM15.6915 30.2381C7.98061 30.2381 1.72797 23.8625 1.72797 16C1.72797 8.13749 7.98061 1.76193 15.6915 1.76193C23.4025 1.76193 29.6551 8.13749 29.6551 16C29.6551 23.8625 23.4025 30.2381 15.6915 30.2381Z" fill="#8DC641"/>
<path d="M21.1753 12.3641L17.6794 17.6499H21.1753V12.3641ZM22.4937 10.2253V17.6601H24.0319V19.0045H22.4937V21.7849H21.1653V19.0045H16.2211V17.5582L21.2053 10.2355L22.4937 10.2253ZM14.7628 20.4303V21.7747H7.35156V21.7339C7.42148 20.471 7.7411 19.5442 8.36038 18.7804C8.85979 18.149 9.46907 17.6805 10.7176 16.8861C10.7176 16.8861 11.1571 16.6009 11.2869 16.5194C11.9561 16.0815 12.3856 15.7352 12.7352 15.338C13.1647 14.8288 13.3845 14.2788 13.3845 13.627C13.3845 12.3641 12.5055 11.4984 11.247 11.4984C9.77871 11.4984 9.02959 12.6391 8.98964 14.3399V14.3705H7.67119V14.3399L7.6612 14.0344C7.6612 11.753 9.11948 10.2253 11.3169 10.2253C13.4644 10.2253 14.8627 11.5493 14.8627 13.5964C14.8627 14.6455 14.4932 15.4908 13.784 16.2343C13.2546 16.8046 12.7053 17.1814 11.4767 17.9453C11.4567 17.9554 11.4467 17.9656 11.4268 17.9758C11.3668 18.0064 11.0972 18.1693 11.0272 18.2202C10.4379 18.5767 10.0784 18.8313 9.75873 19.1369C9.36919 19.5137 9.10949 19.9313 8.98964 20.4201H14.7628V20.4303Z" fill="white"/>
<path d="M39.4922 9.5531H44.716C46.0145 9.5531 47.0333 9.86882 47.7824 10.4901C48.5316 11.1215 48.9111 12.0483 48.9111 13.2908C48.9111 14.4621 48.5615 15.3889 47.8623 16.0712C47.1632 16.7536 46.2143 17.0999 45.0057 17.0999H41.6097V21.8255H39.4922V9.5531ZM41.6097 11.3558V15.3787H44.5562C46.0944 15.3787 46.8535 14.7065 46.8535 13.3621C46.8535 12.028 46.0245 11.366 44.3665 11.366L41.6097 11.3558Z" fill="black"/>
<path d="M55.186 12.7613V14.6455C54.8464 14.6149 54.6267 14.5945 54.5068 14.5945C52.8288 14.5945 51.9898 15.7047 51.9898 17.9249V21.8358H50.082V12.9345H51.8899V14.7066C52.5092 13.3826 53.488 12.7206 54.8165 12.7206L55.186 12.7613Z" fill="black"/>
<path d="M58.3301 9.5022V11.4373H56.4023V9.5022H58.3301ZM58.3301 12.9344V21.8357H56.4023V12.9344H58.3301Z" fill="black"/>
<path d="M59.6992 12.9344H61.7968L64.0341 19.7785L66.1816 12.9344H68.1792L65.0529 21.8562H62.8855L59.6992 12.9344Z" fill="black"/>
<path d="M68.8405 15.6843C69.0403 13.6678 70.3187 12.6697 72.666 12.6697C73.7547 12.6697 74.6337 12.8836 75.2829 13.3215C75.9321 13.7594 76.2518 14.4418 76.2518 15.3584V19.8702C76.2518 20.1248 76.2817 20.2979 76.3417 20.3896C76.4016 20.4813 76.5215 20.5322 76.7012 20.5322C76.8411 20.5322 76.9809 20.522 77.1407 20.5016V21.8867C76.6413 22.009 76.2318 22.0802 75.8922 22.0802C75.0732 22.0802 74.5937 21.7238 74.4739 21.0109C73.7447 21.7238 72.7159 22.0802 71.4075 22.0802C70.5085 22.0802 69.7894 21.846 69.26 21.3673C68.7306 20.8886 68.4609 20.247 68.4609 19.4221C68.4609 19.1674 68.4909 18.9332 68.5408 18.7193C68.6008 18.5055 68.6607 18.3119 68.7406 18.149C68.8105 17.986 68.9304 17.8435 69.1002 17.7009C69.26 17.5583 69.3998 17.4463 69.5097 17.3546C69.6196 17.2629 69.7894 17.1815 70.0391 17.1C70.2788 17.0185 70.4586 16.9574 70.5784 16.9167C70.6983 16.8759 70.8981 16.8352 71.1977 16.7843C71.4874 16.7435 71.6871 16.7028 71.777 16.6926C71.8769 16.6722 72.0767 16.6519 72.3763 16.6111C73.0655 16.5195 73.535 16.438 73.7847 16.3769C74.0344 16.3158 74.2042 16.2139 74.2941 16.0917C74.374 16 74.4139 15.7862 74.4139 15.4501C74.4139 14.5538 73.8146 14.1057 72.616 14.1057C71.9868 14.1057 71.5273 14.2279 71.2277 14.4724C70.938 14.7168 70.7482 15.1242 70.6683 15.6945H68.8405V15.6843ZM74.384 17.375C74.2341 17.4564 74.0643 17.5277 73.8746 17.5888C73.6848 17.6499 73.525 17.6907 73.4051 17.7111C73.2853 17.7314 73.1055 17.7518 72.8458 17.7925C72.5961 17.8231 72.4263 17.8536 72.3464 17.8638C72.1066 17.8944 71.9269 17.9351 71.787 17.9555C71.6472 17.986 71.4874 18.037 71.2876 18.0981C71.0878 18.1694 70.938 18.2508 70.8281 18.3527C70.7183 18.4545 70.6284 18.5869 70.5485 18.7499C70.4686 18.9128 70.4286 19.1165 70.4286 19.3406C70.4286 19.7683 70.5685 20.0942 70.8381 20.3183C71.1178 20.5526 71.4974 20.6646 71.9968 20.6646C72.8558 20.6646 73.515 20.4303 73.9744 19.9618C74.2341 19.697 74.364 19.1878 74.364 18.424V17.375H74.384Z" fill="black"/>
<path d="M82.6713 12.9344V14.3704H80.9134V19.0554C80.9134 19.3303 80.9233 19.5238 80.9333 19.6359C80.9433 19.7479 80.9733 19.8701 81.0332 20.0025C81.0931 20.1349 81.193 20.2266 81.3329 20.2673C81.4727 20.3182 81.6725 20.3386 81.9122 20.3386C82.2318 20.3386 82.4815 20.3284 82.6713 20.3081V21.8561C82.2917 21.8969 81.8523 21.9274 81.3728 21.9274C81.0332 21.9274 80.7336 21.8969 80.4839 21.8459C80.2342 21.795 80.0144 21.7339 79.8446 21.6626C79.6748 21.5913 79.535 21.4793 79.4251 21.3061C79.3152 21.1432 79.2253 21.0006 79.1654 20.8886C79.1055 20.7765 79.0555 20.583 79.0256 20.3081C78.9956 20.0331 78.9856 19.8192 78.9856 19.6766C78.9856 19.534 78.9856 19.2794 78.9856 18.923C78.9856 18.8822 78.9856 18.8415 78.9856 18.8109C78.9856 18.7804 78.9856 18.7498 78.9856 18.7091C78.9856 18.6683 78.9856 18.6276 78.9856 18.597V14.3704H77.5273V12.9344H78.9856V10.2559H80.9134V12.9344H82.6713Z" fill="black"/>
<path d="M92.811 20.0942V21.8358H84.7305C84.7405 21.296 84.8104 20.797 84.9502 20.3488C85.09 19.9007 85.2399 19.5137 85.4197 19.198C85.5895 18.8823 85.8492 18.5563 86.1987 18.2304C86.5383 17.9045 86.848 17.6296 87.1276 17.4157C87.4073 17.2018 87.7869 16.9268 88.2663 16.6009C88.2963 16.5805 88.4661 16.4685 88.7657 16.2648C89.0654 16.0611 89.2452 15.9389 89.3151 15.888C89.385 15.8371 89.5348 15.7148 89.7745 15.5213C90.0143 15.3278 90.1641 15.1751 90.244 15.063C90.3139 14.951 90.4138 14.788 90.5436 14.5945C90.6735 14.401 90.7634 14.1973 90.8033 14.0038C90.8433 13.8001 90.8732 13.5863 90.8732 13.3622C90.8732 12.7308 90.7034 12.2317 90.3539 11.8753C90.0143 11.5086 89.5448 11.3355 88.9555 11.3355C88.6159 11.3355 88.3262 11.3864 88.0765 11.4984C87.8268 11.6105 87.6371 11.753 87.4972 11.916C87.3574 12.0891 87.2375 12.3132 87.1476 12.578C87.0577 12.853 86.9978 13.1076 86.9678 13.3418C86.9379 13.5863 86.9179 13.8613 86.9079 14.1872H85.0301V13.8816C85.0301 12.578 85.3897 11.5493 86.1088 10.7855C86.828 10.0217 87.7969 9.63464 89.0054 9.63464C90.1541 9.63464 91.083 9.96055 91.7822 10.6225C92.4814 11.2845 92.8309 12.1604 92.8309 13.2502C92.8309 13.6881 92.761 14.1057 92.6312 14.4927C92.4913 14.8797 92.3515 15.1954 92.2017 15.4399C92.0519 15.6843 91.7822 15.9593 91.4126 16.2852C91.043 16.6111 90.7634 16.8352 90.5836 16.9574C90.4038 17.0796 90.0742 17.3138 89.5848 17.6499C88.1764 18.5767 87.3274 19.3915 87.0477 20.084H92.811V20.0942Z" fill="black"/>
<path d="M102 17.3138V18.9739H100.492V21.8358H98.6339L98.6139 18.9739H93.5898V17.0286L98.6639 9.66516H100.492V17.324L102 17.3138ZM98.6439 17.3138V12.0891L95.178 17.3138H98.6439Z" fill="black"/>
<defs>
<linearGradient id="paint0_linear_84_23456" x1="0.101562" y1="16" x2="31.2849" y2="16" gradientUnits="userSpaceOnUse">
<stop stop-color="#333333"/>
<stop offset="1"/>
</linearGradient>
</defs>
</svg>
