<svg width="14" height="14" viewBox="0 0 14 14" fill="none" xmlns="http://www.w3.org/2000/svg">
<g clip-path="url(#clip0_1713_1577)">
<path d="M7.00107 5.09094C8.05426 5.09094 8.91016 5.94684 8.91016 7.00003C8.91016 8.05322 8.05426 8.90912 7.00107 8.90912C5.94788 8.90912 5.09198 8.05322 5.09198 7.00003C5.09198 5.94684 5.94791 5.09094 7.00107 5.09094Z" fill="#C4CACF"/>
<path d="M6.99998 2.22729C10.1818 2.22729 12.8991 4.20637 14 7.00002C12.8991 9.79365 10.1818 11.7728 6.99998 11.7728C3.81499 11.7728 1.10089 9.79365 -3.06875e-05 7.00002C1.10089 4.20637 3.81499 2.22729 6.99998 2.22729ZM6.99998 10.1818C8.75635 10.1818 10.1818 8.75636 10.1818 6.99999C10.1818 5.24363 8.75635 3.81819 6.99998 3.81819C5.24362 3.81819 3.81815 5.24366 3.81815 7.00002C3.81815 8.75639 5.24362 10.1818 6.99998 10.1818Z" fill="#C4CACF"/>
</g>
<defs>
<clipPath id="clip0_1713_1577">
<rect width="14" height="14" fill="white" transform="matrix(-1 -3.55949e-08 -3.55949e-08 1 14 0)"/>
</clipPath>
</defs>
</svg>
